<svg xmlns="http://www.w3.org/2000/svg" width="799.332" height="470.028" viewBox="0 0 749.374 440.651"><path d="M413.061 9.514L334.042 29.27l-32.266 50.045-29.632 74.41-17.12 42.802-6.586 87.579-2.813 156.398 333.686.146 5.616-140.74-9.219-187.67z" fill="#fff" fill-rule="evenodd"/><path d="M.11 406.77l.11-33.881 9.855-7.962C24.84 353 41.44 343.473 83.707 322.674c67.963-33.444 96.99-43.722 147.631-52.276l16.593-2.803 1.954-29.465c2.876-43.363 5.935-58.034 15.322-73.484 2-12.133 9.958-23.429 12.9-33.682 4.182-15.211 13.054-32.665 14.547-31.172 1.75 1.751-17.578 55.318-25.765 71.404-7.515 14.767-7.681 22.226-9.927 37.696-3.611 24.879-5.849 55.91-3.573 72.934 1.041 7.792 1.861 29.138 1.822 47.434-.04 18.295.69 36.816 1.62 41.156 3.06 14.266 15.528 27.167 26.269 27.18 2.68 0 9.855 2.545 15.944 5.649 12.768 6.508 18.135 6.49 32.364-.102 10.282-4.764 11.112-4.855 7.456-.816-3.122 3.451-12.722 7.294-21.97 8.797l-5.975.97 3.056 5.991c1.68 3.295 6.41 9.72 10.507 14.278 4.098 4.558 6.976 8.288 6.395 8.288-4.084 0-16.397-11.428-22.394-20.784-3.849-6.004-8.503-11.722-10.343-12.707-4.257-2.278-17.523-6.3-17.523-5.311 0 .732 7.443 30.545 8.99 36.012.75 2.642-6.885 2.79-144.408 2.79H0l.11-33.881zm386.777 31.038c1.887-1.505 13.008-9.53 24.714-17.833 16.18-11.478 27.351-21.224 46.598-40.658 26.791-27.052 32.624-34.298 34.333-42.65 1.121-5.485 1.39-5.677 19.83-14.106 6.004-2.745 13.693-7.766 17.085-11.158 11.61-11.611 18.706-31.334 19.386-53.889.538-17.86-5.139-21.293-23.718-14.341-9.133 3.417-26.223 12.654-30.976 16.743-4.331 3.725-4.477.72-.463-9.504 9.027-22.995 15.808-50.525 17.35-70.447.896-11.569 2.15-16.513 6.469-25.51 21.243-44.252 9.346-67.216-52.723-101.767-29.034-16.161-62.01-26.514-84.614-26.563-19.296-.041-37.969 8.691-53.49 25.015-8.634 9.082-22.195 27.995-27.598 38.49-4.328 8.407-4.77 4.67-.853-7.22 4.41-13.396 14.3-33.41 22.416-45.368C331.906 20.43 347.796 9.87 371.27 3.389 381.563.546 387.916.019 412.156 0c68.869-.056 104.36 15.001 142.47 60.443 38.791 46.256 58.195 89.867 61.689 138.655 1.252 17.479-1.699 33.27-9.067 48.526-2.78 5.757-7.114 15.451-9.63 21.543-2.515 6.091-6.36 14.272-8.544 18.18-2.184 3.907-3.727 7.348-3.428 7.646.298.298 9.815 2.29 21.149 4.426 25.77 4.856 41.733 9.113 61.184 16.316 18.323 6.785 49.468 22.719 67.928 34.752l13.467 8.778v81.386H603.378c-138.313 0-145.95-.146-145.125-2.79 1.055-3.382 15.01-61.75 16.104-67.364.614-3.146-.966-1.97-7.5 5.58-17.641 20.388-35.723 36.385-57 50.428-11.788 7.78-22.55 14.123-23.916 14.093-1.9-.04-1.676-.697.946-2.79zM571.23 294.514c-1.08-.437-3.232-.463-4.783-.059-1.552.404-.668.762 1.962.794 2.631.032 3.9-.298 2.82-.735zm-13.583-1.648c-1.535-.4-4.046-.4-5.58 0-1.535.401-.28.73 2.79.73 3.07 0 4.325-.329 2.79-.73zm-173.392 96.125c0-.541 5.944-3.808 13.208-7.26 14.502-6.89 23.11-12.912 40.668-28.452 6.393-5.66 11.948-9.965 12.344-9.568 1.133 1.132-15.01 17.579-25.544 26.026-12.237 9.812-40.676 23.274-40.676 19.254zm-102.415-34.306c-6.332-5.657-4.829-8.44 1.686-3.12 2.55 2.082 5.989 4.64 7.64 5.685 2.85 1.801 2.82 1.904-.558 1.993-1.959.05-5.905-2-8.768-4.558zM483.944 325.6c-3.73-2.934-4.26-4.316-3.585-9.346.835-6.232 6.186-15.962 7.164-13.028.316.948-.19 3.151-1.123 4.896-2.695 5.034-2 12.181 1.49 15.34 6.396 5.788 3.02 7.617-3.946 2.138zM305.08 312.3c-5.848-2.647-10.293-8.415-15.604-20.247-4.07-9.068-6.786-24.315-4.574-25.682.742-.458 6.359.975 12.483 3.185 6.124 2.21 19.081 6.73 28.794 10.043 19.767 6.745 27.78 10.468 27.78 12.907 0 .906.623 1.264 1.382.794 2.147-1.327 7.09 5.035 6.04 7.772-1.225 3.195-9.95 8.498-16.988 10.326-10.874 2.824-33.902 3.353-39.313.903zm16.992-2.051c0-.69-2.313-1.432-5.14-1.647-2.826-.215-7.435-1.746-10.24-3.402-4.206-2.481-5.255-2.616-5.965-.765-1.234 3.215 6.49 6.929 14.568 7.005 3.727.035 6.777-.5 6.777-1.191zm29.366-12.468c3.923-1.506 2.999-3.654-2.66-6.18-6.272-2.8-55.565-19.957-57.338-19.957-1.918 0-1.401 5.257.8 8.148 6.799 8.928 49.219 21.818 59.198 17.989zm24.966 8.541c.822-2.85 1.955-12.177 2.52-20.727.564-8.55 1.564-15.546 2.222-15.546.657 0 2.02 3.44 3.029 7.644 1.967 8.202.785 16.754-3.85 27.846-3.097 7.415-6 7.995-3.921.783zm121.731-2.067c-1.28-6.82.231-9.11 2.344-3.553 2 5.258 4.967 6.204 12.35 3.938 9.135-2.803 18.904-13.05 21.798-22.864 3.734-12.66 4.895-25.146 2.718-29.214-1.647-3.078-1.516-3.455 1.036-2.97 2.208.419 3.045 2.27 3.425 7.57.606 8.462-3.73 28.998-7.827 37.068-4.787 9.43-16.234 15.68-28.716 15.68-5.687 0-6.134-.355-7.128-5.655zm10.881-6.631c-5.815-1.12-4.1-3.659 2.472-3.659 3.332 0 6.92-.86 7.972-1.913 2.61-2.61 2.404-9.77-.478-16.668-3.45-8.255-2.866-9.974 1.644-4.847 3.111 3.536 3.936 6.218 3.936 12.799 0 13.19-3.68 16.573-15.546 14.288zm-243.738-46.028c1.555-13.232 10.985-29.377 18.562-31.782 1.846-.585 3.73-3.377 4.693-6.955 1.216-4.515 2.978-6.629 7.21-8.647 7.138-3.404 7.174-1.585.078 4.075-6.298 5.026-6.04 8.455.751 9.947 3.195.701 5.035 2.445 6.245 5.915.943 2.707 1.715 5.198 1.715 5.537 0 1.117-5.517-2.366-9.101-5.744-1.936-1.826-4.563-3.32-5.837-3.32-5.229 0-18.776 22.252-21.114 34.679-1.701 9.049-4.342 5.993-3.203-3.705zm78.318-10.463c-2.63-.742-8.909-1.449-13.95-1.571-5.043-.123-9.169-.529-9.169-.902s3.2-2.094 7.111-3.824c8.239-3.644 13.281-2.92 18.52 2.657 4.353 4.632 3.807 5.422-2.512 3.64zm21.525-4.472c0-.825.717-1.944 1.594-2.486 3.222-1.992 1.68-10.897-2.674-15.442-5.557-5.8-4.076-7.088 2.82-2.452 6.477 4.355 7.628 9.473 3.75 16.676-2.684 4.981-5.49 6.875-5.49 3.704zm-10.013-26.134c-3.354-8.533 1.724-41.76 6.867-44.938 2.015-1.246 1.962.765-.184 6.92-.955 2.739-2.59 13.07-3.635 22.959-1.137 10.76-2.361 16.807-3.048 15.059zm-48.98-11.468c0-.46 8.968-11.247 19.93-23.971 20.252-23.509 25.65-27.6 12.876-9.758-12.14 16.956-32.806 38.203-32.806 33.729zm97.259-8.836c-9.278-5.111-19.133-13.68-19.133-16.636 0-2.455 9.38-11.111 15.147-13.979 15.693-7.802 27.23-2.481 40.496 18.676 2.72 4.337 4.944 8.744 4.944 9.792 0 3.244-12.318 7.037-22.752 7.007-8.032-.024-11.611-.953-18.702-4.86zm30.692.022c3.289-.913 5.961-2.523 5.939-3.578-.073-3.52-12.122-19.409-17.473-23.044-7.479-5.081-15.37-4.678-24.309 1.242-11.72 7.763-11.837 8.28-3.449 15.154 6.017 4.93 7.189 5.428 6.317 2.681-1.258-3.963 2.581-12.26 6.34-13.702 4.648-1.784 8.644-1.045 11.887 2.198 4.33 4.33 4.01 10.486-.797 15.292-2.193 2.193-3.986 4.312-3.986 4.711 0 1.368 13.554.706 19.531-.954zm29.617-29.412c-1.444-2.631-4.69-6.745-7.213-9.142-10.344-9.83-39.64-17.054-57.537-14.19-11.786 1.886-9.982-.832 4.35-6.554 17.19-6.862 26.139-7.386 36.498-2.137 15.998 8.107 28.218 22.812 27.043 32.542l-.515 4.264zm-158.366-3.459c-6.442-3.412-18.335-13.134-18.335-14.99 0-.82 3.408-5.005 7.573-9.3 12.468-12.854 25.393-13.785 35.266-2.54 4.871 5.548 7.853 14.992 5.789 18.332-.613.992-4.02 3.909-7.572 6.482-7.373 5.34-15.142 6.03-22.72 2.016zm22.578-6.195c3.476-2.65 5.203-5.105 4.635-6.584-.498-1.298-.905-3.353-.905-4.567s-2.535-4.743-5.633-7.842c-6.326-6.325-13.397-7.417-21.361-3.299-4.371 2.26-12.918 11.152-12.816 13.334.027.59 1.94 2.451 4.248 4.136 2.31 1.684 3.66 2.19 3.002 1.125-1.44-2.33 2.66-9.014 6.934-11.3 2.45-1.312 4.066-.81 7.972 2.476 6.155 5.18 6.333 10.425.514 15.107l-4.384 3.528 6.127-.944c3.37-.52 8.62-2.846 11.667-5.17zm11.823-34.389c-11.585-16.426-24.483-22.124-37.64-16.626-3.042 1.27-5.53 1.677-5.53.903 0-2.884 15.39-17.078 19.685-18.156 7.846-1.97 19.553 7.196 28.253 22.117 4.508 7.732 6.3 18.74 3.348 20.564-.731.452-4.384-3.509-8.116-8.802z"/></svg>